<svg xmlns="http://www.w3.org/2000/svg" viewBox="0 0 900 1200" role="img" aria-hidden="true">
  <defs>
    <linearGradient id="body" x1="0%" x2="0%" y1="0%" y2="100%">
      <stop offset="0%" stop-color="#321114"/>
      <stop offset="60%" stop-color="#09090b"/>
      <stop offset="100%" stop-color="#040405"/>
    </linearGradient>
  </defs>
  <path d="M450 70c74 0 131 58 131 128 0 46-23 86-58 110 39 18 68 50 82 91 17 49 10 106-19 153l-23 37 7 62 54 117c18 40 22 85 11 127l-39 153c-7 27-31 46-59 46H365c-28 0-52-19-59-46l-39-153c-11-42-7-87 11-127l54-117 7-62-23-37c-29-47-36-104-19-153 14-41 43-73 82-91-35-24-58-64-58-110 0-70 57-128 131-128z" fill="url(#body)"/>
  <ellipse cx="450" cy="268" rx="170" ry="100" fill="rgba(239,68,68,0.16)"/>
  <path d="M320 670c64-64 196-64 260 0 20 20 35 48 43 80l31 123c11 43-20 84-64 84H310c-44 0-75-41-64-84l31-123c8-32 23-60 43-80z" fill="#040405"/>
  <path d="M360 390l-82 202c-23 56-13 119 27 168l37 46h272l37-46c40-49 50-112 27-168l-82-202c-61 42-137 63-184 63s-123-21-182-63z" fill="#050507"/>
  <circle cx="390" cy="258" r="18" fill="rgba(255,255,255,0.12)"/>
  <circle cx="510" cy="258" r="18" fill="rgba(255,255,255,0.12)"/>
  <path d="M365 320c26 28 57 42 85 42s59-14 85-42" stroke="rgba(239,68,68,0.14)" stroke-width="12" stroke-linecap="round" fill="none"/>
</svg>
