<svg xmlns="http://www.w3.org/2000/svg" viewBox="0 0 1600 1000" role="img" aria-hidden="true">
  <defs>
    <radialGradient id="g1" cx="50%" cy="24%" r="60%">
      <stop offset="0%" stop-color="#3e1214"/>
      <stop offset="45%" stop-color="#12080b"/>
      <stop offset="100%" stop-color="#050506"/>
    </radialGradient>
    <radialGradient id="g2" cx="50%" cy="48%" r="28%">
      <stop offset="0%" stop-color="rgba(239,68,68,0.18)"/>
      <stop offset="60%" stop-color="rgba(239,68,68,0.02)"/>
      <stop offset="100%" stop-color="rgba(239,68,68,0)"/>
    </radialGradient>
    <pattern id="noise" width="84" height="84" patternUnits="userSpaceOnUse">
      <path d="M0 42H84" stroke="rgba(255,255,255,0.04)" stroke-width="1"/>
      <path d="M42 0V84" stroke="rgba(255,255,255,0.03)" stroke-width="1"/>
      <circle cx="14" cy="18" r="1.3" fill="rgba(255,255,255,0.12)"/>
      <circle cx="52" cy="68" r="1" fill="rgba(255,255,255,0.08)"/>
      <circle cx="72" cy="24" r="1.1" fill="rgba(255,255,255,0.09)"/>
    </pattern>
  </defs>
  <rect width="1600" height="1000" fill="url(#g1)"/>
  <ellipse cx="800" cy="455" rx="460" ry="280" fill="url(#g2)"/>
  <rect width="1600" height="1000" fill="url(#noise)" opacity="0.35"/>
  <g opacity="0.4">
    <path d="M0 140C180 90 320 120 470 150S780 230 960 176 1340 92 1600 160" fill="none" stroke="rgba(239,68,68,0.18)" stroke-width="2"/>
    <path d="M0 760C220 700 370 718 520 748S820 836 1010 790 1360 690 1600 748" fill="none" stroke="rgba(239,68,68,0.14)" stroke-width="2"/>
  </g>
</svg>
